<svg width="162" height="168" viewBox="0 0 162 168" fill="none" xmlns="http://www.w3.org/2000/svg">
<path d="M80.4544 4.09766L2.17188 108.692M80.4544 4.09766L159.824 108.692M80.4544 4.09766L80.998 108.692M2.17188 108.692H80.998M2.17188 108.692V165.664H80.998M2.17188 108.692L80.998 165.664M159.824 108.692H80.998M159.824 108.692V165.664H80.998M159.824 108.692L80.998 165.664" stroke="#775D8A" stroke-width="4.34903"/>
<path d="M80.5284 4.65625L3.32461 107.905C3.23262 108.028 3.32041 108.203 3.47403 108.203H81.4613M80.5284 4.65625L158.662 107.904C158.755 108.027 158.667 108.203 158.513 108.203H81.4613M80.5284 4.65625L81.4613 108.203" stroke="#F8E89A" stroke-width="5.59712"/>
</svg>
