<svg width="322" height="347" viewBox="0 0 322 347" fill="none" xmlns="http://www.w3.org/2000/svg">
<path d="M159.312 186H6.99007C5.81854 186 4.90015 187.038 5.013 188.204C22.4507 368.384 284.94 415.069 316.312 186M159.312 186L237.354 105.014C238.147 104.19 239.469 104.199 240.252 105.032L316.312 186M159.312 186H316.312M159.312 186V91.5M159.312 91.5V7C159.312 5.89543 158.417 5 157.313 5H12.2104C10.4936 5 9.57471 7.02067 10.7031 8.31453L44.1727 46.693C44.8268 47.443 44.83 48.5598 44.1802 49.3135L10.6624 88.1941C9.54497 89.4903 10.4658 91.5 12.1772 91.5H159.312Z" stroke="#452B52" stroke-width="10"/>
</svg>
