<svg width="317" height="289" viewBox="0 0 317 289" fill="none" xmlns="http://www.w3.org/2000/svg">
<path d="M57.5 151.566C64.6028 153.797 72.161 155 80 155C121.421 155 155 121.421 155 80C155 38.5786 121.421 5 80 5C38.5786 5 5 38.5786 5 80C5 113.582 27.0717 142.01 57.5 151.566ZM57.5 151.566C66.7954 182.584 72.8506 252.131 23.1124 283.122C22.941 283.229 23.0088 283.5 23.2108 283.5H290.79C290.992 283.5 291.083 283.242 290.912 283.134C270.654 270.334 236.089 227.493 255.5 155M312 80C312 121.421 278.421 155 237 155C195.579 155 162 121.421 162 80C162 38.5786 195.579 5 237 5C278.421 5 312 38.5786 312 80Z" stroke="#452B52" stroke-width="10"/>
</svg>
