<svg width="307" height="353" viewBox="0 0 307 353" fill="none" xmlns="http://www.w3.org/2000/svg">
<path d="M4.99954 262.203L152.48 347.351C152.832 347.554 153.267 347.554 153.619 347.351L301.099 262.203M4.99954 262.203V91.908C4.99954 91.5008 5.21677 91.1246 5.56939 90.921L153.049 5.77344M4.99954 262.203H301.099M4.99954 262.203L153.049 5.77344M301.099 262.203V91.908C301.099 91.5008 300.882 91.1246 300.53 90.921L153.049 5.77344M301.099 262.203L153.049 5.77344M153.049 5.77344L153.05 91.5001M153.05 91.5001L225.871 217.63C226.309 218.39 225.761 219.34 224.884 219.34H81.2155C80.3382 219.34 79.7898 218.39 80.2285 217.63L153.05 91.5001ZM153.05 262.342V347.678M300.75 176.729H252.891M53.7168 176.729H4.6875M225.871 135.824L154.037 260.244C153.598 261.004 152.501 261.004 152.063 260.244L80.2285 135.824C79.7899 135.064 80.3382 134.115 81.2155 134.115H224.884C225.761 134.115 226.309 135.064 225.871 135.824ZM6.97354 91.2476H299.125C300.003 91.2476 300.551 92.1973 300.112 92.9571L154.036 345.968C153.598 346.728 152.501 346.728 152.062 345.968L5.98654 92.9571C5.54787 92.1973 6.0962 91.2476 6.97354 91.2476Z" stroke="#452B52" stroke-width="10"/>
</svg>
